HIERARCHY
ROOT Hips
{
    OFFSET 0.000000 0.000000 0.000000
    CHANNELS 6 Xposition Yposition Zposition Zrotation Xrotation Yrotation
    JOINT Spine
    {
        OFFSET -0.000000 14.517291 0.000000
        CHANNELS 3 Zrotation Xrotation Yrotation
        JOINT Spine1
        {
            OFFSET -0.000000 37.558300 0.000000
            CHANNELS 3 Zrotation Xrotation Yrotation
            JOINT Neck
            {
                OFFSET -0.000000 37.404057 3.400369
                CHANNELS 3 Zrotation Xrotation Yrotation
                JOINT Head
                {
                    OFFSET -0.000000 24.785618 -3.540803
                    CHANNELS 3 Zrotation Xrotation Yrotation
                    End Site
                    {
                        OFFSET -0.000000 35.408028 0.000000
                    }
                }
            }
            JOINT LeftShoulder
            {
                OFFSET 6.992933 33.973492 -0.192664
                CHANNELS 3 Zrotation Xrotation Yrotation
                JOINT LeftArm
                {
                    OFFSET 21.527611 0.000000 0.000000
                    CHANNELS 3 Zrotation Xrotation Yrotation
                    JOINT LeftForeArm
                    {
                        OFFSET 56.353916 0.000000 0.000000
                        CHANNELS 3 Zrotation Xrotation Yrotation
                        JOINT LeftHand
                        {
                            OFFSET 47.774071 0.000000 0.000000
                            CHANNELS 3 Zrotation Xrotation Yrotation
                            End Site
                            {
                                OFFSET 26.556021 0.000000 0.000000
                            }
                        }
                    }
                }
            }
            JOINT RightShoulder
            {
                OFFSET -7.065357 33.973492 -0.192664
                CHANNELS 3 Zrotation Xrotation Yrotation
                JOINT RightArm
                {
                    OFFSET -21.527611 0.000000 0.000000
                    CHANNELS 3 Zrotation Xrotation Yrotation
                    JOINT RightForeArm
                    {
                        OFFSET -56.353916 0.000000 0.000000
                        CHANNELS 3 Zrotation Xrotation Yrotation
                        JOINT RightHand
                        {
                            OFFSET -47.774071 0.000000 0.000000
                            CHANNELS 3 Zrotation Xrotation Yrotation
                            End Site
                            {
                                OFFSET -26.556021 0.000000 0.000000
                            }
                        }
                    }
                }
            }
        }
    }
    JOINT LeftUpLeg
    {
        OFFSET 17.704014 0.000000 0.000000
        CHANNELS 3 Zrotation Xrotation Yrotation
        JOINT LeftLeg
        {
            OFFSET -0.000000 -81.181816 0.000000
            CHANNELS 3 Zrotation Xrotation Yrotation
            JOINT LeftFoot
            {
                OFFSET -0.000000 -62.821102 0.000000
                CHANNELS 3 Zrotation Xrotation Yrotation
                JOINT LeftToeBase
                {
                    OFFSET -0.000000 -11.507608 26.556021
                    CHANNELS 3 Zrotation Xrotation Yrotation
                    End Site
                    {
                        OFFSET -0.000000 0.000000 7.081605
                    }
                }
            }
        }
    }
    JOINT RightUpLeg
    {
        OFFSET -17.704014 0.000000 0.000000
        CHANNELS 3 Zrotation Xrotation Yrotation
        JOINT RightLeg
        {
            OFFSET -0.000000 -81.181816 0.000000
            CHANNELS 3 Zrotation Xrotation Yrotation
            JOINT RightFoot
            {
                OFFSET -0.000000 -62.821102 0.000000
                CHANNELS 3 Zrotation Xrotation Yrotation
                JOINT RightToeBase
                {
                    OFFSET -0.000000 -11.507608 26.556021
                    CHANNELS 3 Zrotation Xrotation Yrotation
                    End Site
                    {
                        OFFSET -0.000000 0.000000 7.081605
                    }
                }
            }
        }
    }
}
MOTION
Frames:    5
Frame Time:    0.008333
29.049332    154.351288    -98.051865    -4.161714    4.876627    19.035418    4.158948    4.751912    -0.608872    -7.714530    4.076733    0.133976    12.303926    17.502653    -1.030408    1.163994    -28.726488    -0.477691    11.828802    -6.313167    -12.747386    -24.394426    -41.152939    -23.885216    -29.973854    -36.139473    -103.893631    -50.565060    -46.068695    -53.182758    -11.139397    2.993603    -4.503664    14.543172    16.644659    12.079412    11.687369    10.261868    -0.975283    18.956375    13.596020    19.617332    10.213458    -7.244180    10.496076    -13.826760    38.032780    -11.264106    8.879933    -31.702951    44.823570    0.000000    0.000000    0.000000    -10.568037    -40.888100    -4.446963    13.399358    30.780930    -11.200210    -1.384029    14.900418    -8.661793    0.000000    0.000000    0.000000    
29.200989    154.317032    -98.095413    -4.124257    4.517598    18.965075    4.085411    4.609059    -0.570276    -7.687632    4.019128    0.138795    12.368517    17.268810    -0.984102    0.994074    -28.329342    -0.525142    11.753802    -6.343476    -12.732531    -24.366045    -41.098244    -23.933353    -29.949623    -36.247143    -103.957840    -50.630047    -46.112011    -53.249851    -11.160704    3.030708    -4.598639    14.567303    16.713388    12.253597    11.664641    10.198395    -0.992612    18.997278    13.547005    19.647615    10.249385    -6.884461    10.534618    -13.830340    38.092819    -11.283818    8.977702    -31.787407    44.826355    0.000000    0.000000    0.000000    -10.460108    -40.545471    -4.362105    13.382521    30.765978    -11.160742    -1.353858    14.932849    -8.653874    0.000000    0.000000    0.000000    
29.347723    154.281586    -98.153641    -4.098305    4.187165    18.905447    4.028832    4.462344    -0.566862    -7.690011    3.923176    0.130971    12.268044    17.039497    -0.951393    1.108223    -27.914082    -0.479318    11.718531    -6.391984    -12.655299    -24.405592    -41.040451    -24.016602    -29.923016    -36.315426    -104.013855    -50.661976    -46.151756    -53.265724    -11.173102    2.993448    -4.580321    14.617733    16.767014    12.302656    11.691272    10.203130    -1.004296    19.173592    13.568755    19.559790    10.291370    -6.567427    10.539468    -13.875687    38.151501    -11.276851    9.097699    -31.860250    44.865326    0.000000    0.000000    0.000000    -10.355854    -40.223949    -4.283792    13.366512    30.721478    -11.162773    -1.335946    14.966298    -8.621111    0.000000    0.000000    0.000000    
29.485720    154.245392    -98.207314    -4.079990    3.834140    18.851727    3.999815    4.332799    -0.547319    -7.688930    3.852416    0.130895    12.092172    16.714684    -0.881746    1.302242    -27.415855    -0.377764    11.659348    -6.444808    -12.603163    -24.387989    -40.882923    -24.066212    -29.903812    -36.493332    -104.106689    -50.798908    -46.211056    -53.410175    -11.235205    2.986128    -4.647092    14.669266    16.525415    12.457490    11.900507    10.335781    -1.129582    19.205929    13.703090    19.460962    10.351350    -6.226858    10.537121    -13.917083    38.208794    -11.284411    9.292944    -31.845661    44.880264    0.000000    0.000000    0.000000    -10.223676    -39.876556    -4.207647    13.322772    30.674622    -11.105803    -1.317155    14.996876    -8.631463    0.000000    0.000000    0.000000    
29.624916    154.218414    -98.265099    -4.072561    3.491665    18.799170    3.933423    4.184297    -0.517009    -7.623827    3.787290    0.131660    11.995152    16.473269    -0.853535    1.379295    -26.993872    -0.352496    11.560364    -6.461880    -12.583574    -24.380354    -40.810173    -24.120504    -29.864967    -36.594021    -104.202965    -50.824402    -46.285480    -53.437248    -11.257438    2.956137    -4.674763    14.701922    16.610201    12.525582    11.929171    10.349649    -1.155856    19.299568    13.721230    19.375389    10.421827    -5.895067    10.515324    -13.999714    38.238213    -11.261987    9.366277    -32.009521    44.959164    0.000000    0.000000    0.000000    -10.077168    -39.529755    -4.124774    13.264793    30.602762    -11.058762    -1.284415    15.027130    -8.632271    0.000000    0.000000    0.000000    
